<svg width="24.2" height="24.2" viewBox="0 0 24.2 24.2" fill="none" xmlns="http://www.w3.org/2000/svg">
    <path d="M5.41692 3.025C4.09347 3.025 3.025 4.09347 3.025 5.41692C3.025 6.74035 4.09347 7.83692 5.41692 7.83692C6.74035 7.83692 7.83692 6.74035 7.83692 5.41692C7.83692 4.09347 6.74035 3.025 5.41692 3.025Z" fill="#666666"/>
    <path d="M3.24107 9.29107V21.175H7.59492V9.29107H3.24107Z" fill="#666666"/>
    <path d="M9.82856 9.29107H14.00135V11.18172H14.05547C14.63880 10.10133 16.01633 8.96696 18.04198 8.96696C22.44990 8.96696 23.11958 11.82995 23.11958 15.50318V21.175H18.76573V16.30805C18.76573 14.76849 18.73883 12.79685 16.6375 12.79685C14.50922 12.79685 14.18252 14.47138 14.18252 16.19992V21.175H9.82856V9.29107Z" fill="#666666"/>
</svg> 